# Blender 4.3.2
# www.blender.org
mtllib banana.mtl
o Plane
v -0.200827 -1.279374 0.538089
v 0.200827 -1.279374 0.538089
v -0.200827 -1.279374 0.136436
v 0.200827 -1.279374 0.136436
v -0.266455 -1.261942 0.337263
v 0.266455 -1.261942 0.337263
v -0.000000 -1.261942 0.603718
v -0.000000 -1.261942 0.070807
v -0.233641 -1.314078 0.437676
v 0.100413 -1.314078 0.570904
v 0.233641 -1.314078 0.236849
v -0.100413 -1.314078 0.103622
v -0.233641 -1.314078 0.236849
v 0.233641 -1.314078 0.437676
v -0.100413 -1.314078 0.570904
v 0.100413 -1.314078 0.103622
v -0.116821 -1.516040 0.220442
v -0.116821 -1.516040 0.454083
v 0.116821 -1.516040 0.454083
v 0.116821 -1.516040 0.220442
v 0.057078 -1.611286 0.280185
v -0.057078 -1.611286 0.280185
v -0.057078 -1.611286 0.394340
v 0.057078 -1.611286 0.394340
v -0.125211 -1.545952 0.394340
v -0.125211 -1.545952 0.280185
v -0.210873 -1.387764 0.337263
v 0.125211 -1.545952 0.280185
v 0.125211 -1.545952 0.394340
v 0.210873 -1.387764 0.337263
v 0.057078 -1.545952 0.462474
v -0.057078 -1.545952 0.462474
v -0.000000 -1.387764 0.548135
v -0.057078 -1.545952 0.212051
v 0.057078 -1.545952 0.212051
v -0.000000 -1.387764 0.126390
v -0.221143 -0.881287 0.570068
v 0.221143 -0.881287 0.570068
v -0.221143 -0.915412 0.129100
v 0.221143 -0.915412 0.129100
v -0.293411 -0.898350 0.349584
v 0.293411 -0.898350 0.349584
v -0.000000 -0.875711 0.642121
v -0.000000 -0.920989 0.057048
v -0.257277 -0.889818 0.459826
v 0.110572 -0.878499 0.606095
v 0.257277 -0.906881 0.239342
v -0.110572 -0.918201 0.093074
v -0.257277 -0.906881 0.239342
v 0.257277 -0.889818 0.459826
v -0.110572 -0.878499 0.606095
v 0.110572 -0.918201 0.093074
v -0.225220 -0.343706 0.487613
v 0.225220 -0.343706 0.487613
v -0.225220 -0.438531 0.047267
v 0.225220 -0.438531 0.047267
v -0.298820 -0.391119 0.267440
v 0.298820 -0.391119 0.267440
v -0.000000 -0.328212 0.559563
v -0.000000 -0.454025 -0.024683
v -0.262020 -0.367412 0.377526
v 0.112610 -0.335959 0.523588
v 0.262020 -0.414825 0.157354
v -0.112610 -0.446278 0.011292
v -0.262020 -0.414825 0.157354
v 0.262020 -0.367412 0.377526
v -0.112610 -0.335959 0.523588
v 0.112610 -0.446278 0.011292
v -0.238107 0.337048 0.255484
v 0.238107 0.337048 0.255484
v -0.238107 0.145739 -0.180613
v 0.238107 0.145739 -0.180613
v -0.315919 0.241393 0.037436
v 0.315919 0.241393 0.037436
v -0.000000 0.368307 0.326741
v -0.000000 0.114480 -0.251870
v -0.277013 0.289221 0.146460
v 0.119054 0.352678 0.291113
v 0.277013 0.193566 -0.071589
v -0.119054 0.130109 -0.216242
v -0.277013 0.193566 -0.071589
v 0.277013 0.289221 0.146460
v -0.119054 0.352678 0.291113
v 0.119054 0.130109 -0.216242
v -0.238107 0.734521 -0.004755
v 0.238107 0.734521 -0.004755
v -0.238107 0.503995 -0.421454
v 0.238107 0.503995 -0.421454
v -0.315919 0.619258 -0.213105
v 0.315919 0.619258 -0.213105
v -0.000000 0.772188 0.063332
v -0.000000 0.466327 -0.489541
v -0.277013 0.676889 -0.108930
v 0.119054 0.753354 0.029288
v 0.277013 0.561626 -0.317280
v -0.119054 0.485161 -0.455498
v -0.277013 0.561626 -0.317280
v 0.277013 0.676889 -0.108930
v -0.119054 0.753354 0.029288
v 0.119054 0.485161 -0.455498
v -0.115832 -0.182728 -0.073724
v -0.231664 -0.171039 -0.037922
v -0.000000 -0.194416 -0.109526
v -0.269516 -0.135273 0.071633
v -0.307369 -0.099506 0.181188
v 0.269516 -0.063739 0.290744
v 0.307369 -0.099506 0.181188
v 0.231664 -0.027972 0.400299
v -0.115832 -0.016284 0.436101
v -0.000000 -0.004596 0.471903
v -0.231664 -0.027972 0.400299
v 0.115832 -0.182728 -0.073724
v -0.269516 -0.063739 0.290744
v 0.231664 -0.171039 -0.037922
v 0.115832 -0.016284 0.436101
v 0.269516 -0.135273 0.071633
v -0.238107 1.127247 -0.404278
v 0.238107 1.127247 -0.404278
v -0.238107 0.842354 -0.785875
v 0.238107 0.842354 -0.785875
v -0.315919 0.984801 -0.595076
v 0.315919 0.984801 -0.595076
v 0.000000 1.173797 -0.341926
v 0.000000 0.795804 -0.848227
v -0.277013 1.056023 -0.499677
v 0.119054 1.150522 -0.373102
v 0.277013 0.913577 -0.690476
v -0.119054 0.819079 -0.817051
v -0.277013 0.913577 -0.690476
v 0.277013 1.056023 -0.499677
v -0.119054 1.150522 -0.373102
v 0.119054 0.819079 -0.817051
v -0.202213 1.146845 -0.482327
v 0.202213 1.146845 -0.482327
v -0.202213 0.904900 -0.806399
v 0.202213 0.904900 -0.806399
v -0.268294 1.025873 -0.644363
v 0.268294 1.025873 -0.644363
v 0.000000 1.186378 -0.429375
v 0.000000 0.865368 -0.859351
v -0.235253 1.086359 -0.563345
v 0.101106 1.166611 -0.455851
v 0.235253 0.965387 -0.725381
v -0.101106 0.885134 -0.832875
v -0.235253 0.965387 -0.725381
v 0.235253 1.086359 -0.563345
v -0.101106 1.166611 -0.455851
v 0.101106 0.885134 -0.832875
v -0.095497 1.148120 -0.627560
v 0.095497 1.148120 -0.627560
v -0.095497 1.018627 -0.767954
v 0.095497 1.018627 -0.767954
v -0.126705 1.083374 -0.697757
v 0.126705 1.083374 -0.697757
v -0.000000 1.169279 -0.604621
v -0.000000 0.997469 -0.790893
v -0.111101 1.115747 -0.662659
v 0.047748 1.158700 -0.616091
v 0.111101 1.051000 -0.732855
v -0.047748 1.008048 -0.779423
v -0.111101 1.051000 -0.732855
v 0.111101 1.115747 -0.662659
v -0.047748 1.158700 -0.616091
v 0.047748 1.008048 -0.779423
v -0.095497 1.332945 -0.795956
v 0.095497 1.332945 -0.795956
v -0.095497 1.203452 -0.936350
v 0.095497 1.203452 -0.936350
v -0.126705 1.268198 -0.866153
v 0.126705 1.268198 -0.866153
v -0.000000 1.354104 -0.773017
v -0.000000 1.182294 -0.959289
v -0.111101 1.300572 -0.831055
v 0.047748 1.343524 -0.784487
v 0.111101 1.235825 -0.901251
v -0.047748 1.192873 -0.947820
v -0.111101 1.235825 -0.901251
v 0.111101 1.300572 -0.831055
v -0.047748 1.343524 -0.784487
v 0.047748 1.192873 -0.947820
v -0.095497 1.431519 -0.867973
v 0.095497 1.431519 -0.867973
v -0.095497 1.302025 -1.069695
v 0.095497 1.302025 -1.069695
v -0.126705 1.366772 -0.968834
v 0.126705 1.366772 -0.968834
v -0.000000 1.452677 -0.835012
v -0.000000 1.280867 -1.102655
v -0.111101 1.399145 -0.918403
v 0.047748 1.442098 -0.851492
v 0.111101 1.334399 -1.019264
v -0.047748 1.291446 -1.086175
v -0.111101 1.334399 -1.019264
v 0.111101 1.399145 -0.918403
v -0.047748 1.442098 -0.851492
v 0.047748 1.291446 -1.086175
v -0.095497 1.587593 -0.999404
v 0.095497 1.587593 -0.999404
v -0.095497 1.458100 -1.201126
v 0.095497 1.458100 -1.201126
v -0.126705 1.522846 -1.100265
v 0.126705 1.522846 -1.100265
v -0.000000 1.608751 -0.966443
v -0.000000 1.436941 -1.234087
v -0.111101 1.555219 -1.049834
v 0.047748 1.598172 -0.982923
v 0.111101 1.490473 -1.150695
v -0.047748 1.447520 -1.217606
v -0.111101 1.490473 -1.150695
v 0.111101 1.555219 -1.049834
v -0.047748 1.598172 -0.982923
v 0.047748 1.447520 -1.217606
vn -0.6320 0.4486 0.6320
vn -0.1780 0.4351 -0.8826
vn 0.5290 0.6636 0.5290
vn 0.6320 0.4486 0.6320
vn -0.8826 0.4351 0.1780
vn 0.8826 0.4351 -0.1780
vn 0.8826 0.4351 0.1780
vn 0.6320 0.4486 -0.6320
vn -0.1780 0.4351 0.8826
vn 0.5290 0.6636 -0.5290
vn 0.1780 0.4351 -0.8826
vn -0.6320 0.4486 -0.6320
vn 0.1780 0.4351 0.8826
vn -0.5290 0.6636 -0.5290
vn -0.8826 0.4351 -0.1780
vn -0.0000 1.0000 -0.0000
vn 0.8793 0.4762 -0.0000
vn -0.8793 0.4762 -0.0000
vn -0.0000 0.4762 -0.8793
vn -0.0000 0.4762 0.8793
vn -0.6921 0.7218 -0.0000
vn -0.0000 0.7218 -0.6921
vn 0.6921 0.7218 -0.0000
vn -0.0000 0.7218 0.6921
vn -0.5290 0.6636 0.5290
vn -0.3210 0.0877 -0.9430
vn -0.2880 0.0889 -0.9535
vn -0.9468 0.0560 0.3169
vn -0.9536 0.0569 0.2957
vn 0.3156 0.0350 0.9482
vn 0.3025 0.0356 0.9525
vn 0.9536 0.0569 0.2957
vn 0.9468 0.0560 0.3169
vn -0.9522 0.0741 -0.2963
vn -0.9435 0.0717 -0.3235
vn 0.2880 0.0889 -0.9535
vn 0.3210 0.0877 -0.9430
vn -0.3025 0.0356 0.9525
vn 0.9435 0.0717 -0.3235
vn -0.3156 0.0350 0.9482
vn 0.9522 0.0741 -0.2963
vn -0.9503 -0.0401 -0.3087
vn 0.3100 -0.1418 -0.9401
vn -0.3099 0.1638 0.9366
vn 0.9503 -0.0401 -0.3087
vn -0.3099 0.1635 0.9366
vn 0.9503 -0.0399 -0.3087
vn -0.3100 -0.1418 -0.9401
vn -0.9502 0.0603 0.3057
vn -0.9502 0.0599 0.3058
vn 0.3099 0.1635 0.9366
vn 0.3099 0.1638 0.9366
vn 0.9502 0.0599 0.3058
vn 0.9502 0.0603 0.3057
vn -0.9503 -0.0399 -0.3087
vn 0.3090 0.3964 0.8645
vn 0.3090 0.3975 0.8640
vn 0.9497 0.1423 0.2791
vn 0.9496 0.1438 0.2785
vn -0.9501 -0.1006 -0.2952
vn -0.9501 -0.1004 -0.2952
vn 0.3096 -0.3452 -0.8860
vn 0.3096 -0.3457 -0.8858
vn -0.3090 0.3975 0.8640
vn 0.9501 -0.1004 -0.2952
vn -0.3090 0.3964 0.8645
vn 0.9501 -0.1006 -0.2952
vn -0.3096 -0.3457 -0.8858
vn -0.3096 -0.3452 -0.8860
vn -0.9496 0.1438 0.2785
vn -0.9497 0.1423 0.2791
vn 0.9497 -0.1726 -0.2612
vn -0.3083 -0.5207 -0.7961
vn -0.3083 -0.5200 -0.7966
vn -0.9496 0.1744 0.2603
vn -0.9497 0.1735 0.2608
vn 0.3078 0.5312 0.7893
vn 0.3078 0.5321 0.7887
vn 0.9497 0.1735 0.2608
vn 0.9496 0.1744 0.2603
vn -0.9497 -0.1726 -0.2612
vn -0.9497 -0.1718 -0.2616
vn 0.3083 -0.5200 -0.7966
vn 0.3083 -0.5207 -0.7961
vn -0.3078 0.5321 0.7887
vn 0.9497 -0.1718 -0.2616
vn -0.3078 0.5312 0.7893
vn -0.9496 0.1145 0.2918
vn -0.9496 0.1153 0.2915
vn -0.3095 -0.2484 -0.9179
vn -0.3095 -0.2478 -0.9180
vn 0.9500 -0.0633 -0.3058
vn -0.3092 0.2954 0.9040
vn 0.9500 -0.0645 -0.3054
vn 0.3095 -0.2478 -0.9180
vn 0.3095 -0.2484 -0.9179
vn -0.9500 -0.0645 -0.3054
vn -0.9500 -0.0633 -0.3058
vn 0.9496 0.1153 0.2915
vn 0.9496 0.1145 0.2918
vn 0.3092 0.2954 0.9040
vn 0.3032 -0.6789 -0.6687
vn -0.3010 0.7014 0.6461
vn 0.9479 -0.2278 -0.2225
vn -0.3012 0.6996 0.6479
vn 0.9478 -0.2296 -0.2213
vn -0.3032 -0.6789 -0.6687
vn -0.3033 -0.6775 -0.6701
vn -0.9474 0.2336 0.2186
vn -0.9476 0.2315 0.2200
vn 0.3012 0.6996 0.6479
vn 0.3010 0.7014 0.6461
vn 0.9476 0.2315 0.2200
vn 0.9474 0.2336 0.2186
vn -0.9478 -0.2296 -0.2213
vn -0.9479 -0.2278 -0.2225
vn 0.3033 -0.6775 -0.6701
vn 0.7423 -0.6456 0.1793
vn -0.2249 -0.9645 -0.1388
vn -0.7965 -0.2816 0.5350
vn 0.2780 0.1517 0.9485
vn 0.7965 -0.2816 0.5350
vn -0.7423 -0.6456 0.1793
vn 0.2249 -0.9645 -0.1388
vn -0.2780 0.1517 0.9485
vn -0.5166 -0.7611 0.3923
vn 0.1740 -0.9796 0.1007
vn 0.1713 -0.9790 0.1110
vn -0.1334 -0.4500 0.8830
vn 0.5166 -0.7611 0.3923
vn -0.1372 -0.4379 0.8885
vn 0.4880 -0.7699 0.4112
vn -0.1713 -0.9790 0.1110
vn -0.1740 -0.9796 0.1007
vn -0.4340 -0.6061 0.6665
vn -0.4669 -0.5848 0.6633
vn 0.1372 -0.4379 0.8885
vn 0.1334 -0.4500 0.8830
vn 0.4669 -0.5848 0.6633
vn 0.4340 -0.6061 0.6665
vn -0.4880 -0.7699 0.4112
vn 0.3106 0.6402 0.7026
vn 0.9505 0.2092 0.2296
vn -0.9505 -0.2092 -0.2296
vn 0.3106 -0.6402 -0.7026
vn -0.3106 0.6402 0.7026
vn 0.9505 -0.2092 -0.2296
vn -0.3106 -0.6402 -0.7026
vn -0.9505 0.2092 0.2296
vn -0.3444 -0.5410 -0.7672
vn -0.3439 -0.5141 -0.7857
vn -0.9576 0.2267 0.1778
vn -0.9588 0.2120 0.1894
vn 0.3314 0.7636 0.5541
vn 0.3298 0.7735 0.5413
vn 0.9588 0.2120 0.1894
vn 0.9576 0.2267 0.1778
vn -0.9597 -0.1951 -0.2024
vn -0.9602 -0.1757 -0.2173
vn 0.3439 -0.5141 -0.7857
vn 0.3444 -0.5410 -0.7672
vn -0.3298 0.7735 0.5413
vn 0.9602 -0.1757 -0.2173
vn -0.3314 0.7636 0.5541
vn 0.9597 -0.1951 -0.2024
vn 0.3768 -0.5967 -0.7085
vn -0.3768 0.5967 0.7085
vn 0.9672 -0.1636 -0.1943
vn -0.3768 -0.5967 -0.7085
vn -0.9672 0.1636 0.1943
vn 0.3768 0.5967 0.7085
vn 0.9672 0.1636 0.1943
vn -0.9672 -0.1636 -0.1943
vn -0.0000 -0.8415 0.5402
vt 0.750000 0.750000
vt 1.000000 0.750000
vt 1.000000 1.000000
vt 0.750000 1.000000
vt 0.500000 0.000000
vt 0.750000 0.000000
vt 0.750000 0.250000
vt 0.622148 0.250000
vt 0.500000 0.142894
vt 0.250000 0.622148
vt 0.385993 0.614007
vt 0.377852 0.750000
vt 0.250000 0.750000
vt 0.000000 0.750000
vt 0.250000 1.000000
vt 0.000000 1.000000
vt 0.750000 0.622148
vt 0.857106 0.500000
vt 1.000000 0.500000
vt 0.000000 0.250000
vt 0.250000 0.250000
vt 0.250000 0.377852
vt 0.142894 0.500000
vt 0.000000 0.500000
vt 0.000000 0.000000
vt 0.250000 0.000000
vt 0.500000 0.857106
vt 0.622148 0.750000
vt 0.500000 1.000000
vt 0.377852 0.250000
vt 0.385993 0.385993
vt 1.000000 0.000000
vt 1.000000 0.250000
vt 0.500000 0.857106
vt 0.750000 0.377852
vt 0.614007 0.385993
vt 0.857106 0.500000
vt 0.614007 0.614007
vt 0.271494 0.613557
vt 0.728506 0.386443
vt 0.386443 0.271494
vt 0.613557 0.728506
s 0
f 20/1/1 11/2/1 4/3/1 16/4/1
f 7/5/2 10/6/2 19/7/2 31/8/2 33/9/2
f 26/10/3 22/11/3 34/12/3 17/13/3
f 13/14/4 17/13/4 12/15/4 3/16/4
f 28/17/5 30/18/5 6/19/5 11/2/5 20/1/5
f 9/20/6 18/21/6 25/22/6 27/23/6 5/24/6
f 5/24/7 27/23/7 26/10/7 17/13/7 13/14/7
f 1/25/8 15/26/8 18/21/8 9/20/8
f 36/27/9 35/28/9 20/1/9 16/4/9 8/29/9
f 18/21/10 32/30/10 23/31/10 25/22/10
f 15/26/11 7/5/11 33/9/11 32/30/11 18/21/11
f 10/6/12 2/32/12 14/33/12 19/7/12
f 17/13/13 34/12/13 36/34/13 8/29/13 12/15/13
f 31/8/14 19/7/14 29/35/14 24/36/14
f 19/7/15 14/33/15 6/19/15 30/37/15 29/35/15
f 21/38/16 22/11/16 23/31/16 24/36/16
f 25/22/17 26/39/17 27/23/17
f 28/17/18 29/40/18 30/37/18
f 31/8/19 32/41/19 33/9/19
f 34/12/20 35/42/20 36/27/20
f 28/17/21 21/38/21 24/36/21 29/35/21
f 31/8/22 24/36/22 23/31/22 32/30/22
f 22/11/23 26/10/23 25/22/23 23/31/23
f 21/38/24 35/28/24 34/12/24 22/11/24
f 21/38/25 28/17/25 20/1/25 35/28/25
f 2/32/26 10/6/26 46/6/26 38/32/26
f 10/6/27 7/5/27 43/5/27 46/6/27
f 4/3/28 11/2/28 47/2/28 40/3/28
f 11/2/29 6/19/29 42/19/29 47/2/29
f 3/16/30 12/15/30 48/15/30 39/16/30
f 12/15/31 8/29/31 44/29/31 48/15/31
f 5/24/32 13/14/32 49/14/32 41/24/32
f 13/14/33 3/16/33 39/16/33 49/14/33
f 6/19/34 14/33/34 50/33/34 42/19/34
f 14/33/35 2/32/35 38/32/35 50/33/35
f 7/5/36 15/26/36 51/26/36 43/5/36
f 15/26/37 1/25/37 37/25/37 51/26/37
f 8/29/38 16/4/38 52/4/38 44/29/38
f 1/25/39 9/20/39 45/20/39 37/25/39
f 16/4/40 4/3/40 40/3/40 52/4/40
f 9/20/41 5/24/41 41/24/41 45/20/41
f 50/33/42 38/32/42 54/32/42 66/33/42
f 43/5/43 51/26/43 67/26/43 59/5/43
f 51/26/43 37/25/43 53/25/43 67/26/43
f 44/29/44 52/4/44 68/4/44 60/29/44
f 37/25/45 45/20/45 61/20/45 53/25/45
f 52/4/46 40/3/46 56/3/46 68/4/46
f 45/20/47 41/24/47 57/24/47 61/20/47
f 38/32/48 46/6/48 62/6/48 54/32/48
f 46/6/48 43/5/48 59/5/48 62/6/48
f 40/3/49 47/2/49 63/2/49 56/3/49
f 47/2/50 42/19/50 58/19/50 63/2/50
f 39/16/51 48/15/51 64/15/51 55/16/51
f 48/15/52 44/29/52 60/29/52 64/15/52
f 41/24/53 49/14/53 65/14/53 57/24/53
f 49/14/54 39/16/54 55/16/54 65/14/54
f 42/19/55 50/33/55 66/33/55 58/19/55
f 102/16/56 101/15/56 80/15/56 71/16/56
f 101/15/57 103/29/57 76/29/57 80/15/57
f 105/24/58 104/14/58 81/14/58 73/24/58
f 104/14/59 102/16/59 71/16/59 81/14/59
f 107/19/60 106/33/60 82/33/60 74/19/60
f 106/33/61 108/32/61 70/32/61 82/33/61
f 110/5/62 109/26/62 83/26/62 75/5/62
f 109/26/63 111/25/63 69/25/63 83/26/63
f 103/29/64 112/4/64 84/4/64 76/29/64
f 111/25/65 113/20/65 77/20/65 69/25/65
f 112/4/66 114/3/66 72/3/66 84/4/66
f 113/20/67 105/24/67 73/24/67 77/20/67
f 108/32/68 115/6/68 78/6/68 70/32/68
f 115/6/69 110/5/69 75/5/69 78/6/69
f 114/3/70 116/2/70 79/2/70 72/3/70
f 116/2/71 107/19/71 74/19/71 79/2/71
f 77/20/72 73/24/72 89/24/72 93/20/72
f 70/32/73 78/6/73 94/6/73 86/32/73
f 78/6/74 75/5/74 91/5/74 94/6/74
f 72/3/75 79/2/75 95/2/75 88/3/75
f 79/2/76 74/19/76 90/19/76 95/2/76
f 71/16/77 80/15/77 96/15/77 87/16/77
f 80/15/78 76/29/78 92/29/78 96/15/78
f 73/24/79 81/14/79 97/14/79 89/24/79
f 81/14/80 71/16/80 87/16/80 97/14/80
f 74/19/81 82/33/81 98/33/81 90/19/81
f 82/33/82 70/32/82 86/32/82 98/33/82
f 75/5/83 83/26/83 99/26/83 91/5/83
f 83/26/84 69/25/84 85/25/84 99/26/84
f 76/29/85 84/4/85 100/4/85 92/29/85
f 69/25/86 77/20/86 93/20/86 85/25/86
f 84/4/87 72/3/87 88/3/87 100/4/87
f 63/2/88 58/19/88 107/19/88 116/2/88
f 56/3/89 63/2/89 116/2/89 114/3/89
f 62/6/90 59/5/90 110/5/90 115/6/90
f 54/32/91 62/6/91 115/6/91 108/32/91
f 61/20/92 57/24/92 105/24/92 113/20/92
f 68/4/93 56/3/93 114/3/93 112/4/93
f 53/25/94 61/20/94 113/20/94 111/25/94
f 60/29/93 68/4/93 112/4/93 103/29/93
f 67/26/95 53/25/95 111/25/95 109/26/95
f 59/5/96 67/26/96 109/26/96 110/5/96
f 66/33/97 54/32/97 108/32/97 106/33/97
f 58/19/98 66/33/98 106/33/98 107/19/98
f 65/14/99 55/16/99 102/16/99 104/14/99
f 57/24/100 65/14/100 104/14/100 105/24/100
f 64/15/101 60/29/101 103/29/101 101/15/101
f 55/16/101 64/15/101 101/15/101 102/16/101
f 99/26/102 85/25/102 117/25/102 131/26/102
f 92/29/103 100/4/103 132/4/103 124/29/103
f 85/25/104 93/20/104 125/20/104 117/25/104
f 100/4/105 88/3/105 120/3/105 132/4/105
f 93/20/106 89/24/106 121/24/106 125/20/106
f 86/32/107 94/6/107 126/6/107 118/32/107
f 94/6/108 91/5/108 123/5/108 126/6/108
f 88/3/109 95/2/109 127/2/109 120/3/109
f 95/2/110 90/19/110 122/19/110 127/2/110
f 87/16/111 96/15/111 128/15/111 119/16/111
f 96/15/112 92/29/112 124/29/112 128/15/112
f 89/24/113 97/14/113 129/14/113 121/24/113
f 97/14/114 87/16/114 119/16/114 129/14/114
f 90/19/115 98/33/115 130/33/115 122/19/115
f 98/33/116 86/32/116 118/32/116 130/33/116
f 91/5/117 99/26/117 131/26/117 123/5/117
f 125/20/118 121/24/118 137/24/118 141/20/118
f 118/32/119 126/6/119 142/6/119 134/32/119
f 126/6/119 123/5/119 139/5/119 142/6/119
f 120/3/120 127/2/120 143/2/120 136/3/120
f 127/2/120 122/19/120 138/19/120 143/2/120
f 119/16/121 128/15/121 144/15/121 135/16/121
f 128/15/121 124/29/121 140/29/121 144/15/121
f 121/24/122 129/14/122 145/14/122 137/24/122
f 129/14/122 119/16/122 135/16/122 145/14/122
f 122/19/123 130/33/123 146/33/123 138/19/123
f 130/33/123 118/32/123 134/32/123 146/33/123
f 123/5/124 131/26/124 147/26/124 139/5/124
f 131/26/124 117/25/124 133/25/124 147/26/124
f 124/29/125 132/4/125 148/4/125 140/29/125
f 117/25/118 125/20/118 141/20/118 133/25/118
f 132/4/125 120/3/125 136/3/125 148/4/125
f 146/33/126 134/32/126 150/32/126 162/33/126
f 139/5/127 147/26/127 163/26/127 155/5/127
f 147/26/128 133/25/128 149/25/128 163/26/128
f 140/29/129 148/4/129 164/4/129 156/29/129
f 133/25/130 141/20/130 157/20/130 149/25/130
f 148/4/131 136/3/131 152/3/131 164/4/131
f 141/20/132 137/24/132 153/24/132 157/20/132
f 134/32/133 142/6/133 158/6/133 150/32/133
f 142/6/134 139/5/134 155/5/134 158/6/134
f 136/3/135 143/2/135 159/2/135 152/3/135
f 143/2/136 138/19/136 154/19/136 159/2/136
f 135/16/137 144/15/137 160/15/137 151/16/137
f 144/15/138 140/29/138 156/29/138 160/15/138
f 137/24/139 145/14/139 161/14/139 153/24/139
f 145/14/140 135/16/140 151/16/140 161/14/140
f 138/19/141 146/33/141 162/33/141 154/19/141
f 160/15/142 156/29/142 172/29/142 176/15/142
f 153/24/143 161/14/143 177/14/143 169/24/143
f 161/14/143 151/16/143 167/16/143 177/14/143
f 154/19/144 162/33/144 178/33/144 170/19/144
f 162/33/144 150/32/144 166/32/144 178/33/144
f 155/5/145 163/26/145 179/26/145 171/5/145
f 163/26/145 149/25/145 165/25/145 179/26/145
f 156/29/146 164/4/146 180/4/146 172/29/146
f 149/25/147 157/20/147 173/20/147 165/25/147
f 164/4/146 152/3/146 168/3/146 180/4/146
f 157/20/147 153/24/147 169/24/147 173/20/147
f 150/32/148 158/6/148 174/6/148 166/32/148
f 158/6/148 155/5/148 171/5/148 174/6/148
f 152/3/149 159/2/149 175/2/149 168/3/149
f 159/2/149 154/19/149 170/19/149 175/2/149
f 151/16/142 160/15/142 176/15/142 167/16/142
f 166/32/150 174/6/150 190/6/150 182/32/150
f 174/6/151 171/5/151 187/5/151 190/6/151
f 168/3/152 175/2/152 191/2/152 184/3/152
f 175/2/153 170/19/153 186/19/153 191/2/153
f 167/16/154 176/15/154 192/15/154 183/16/154
f 176/15/155 172/29/155 188/29/155 192/15/155
f 169/24/156 177/14/156 193/14/156 185/24/156
f 177/14/157 167/16/157 183/16/157 193/14/157
f 170/19/158 178/33/158 194/33/158 186/19/158
f 178/33/159 166/32/159 182/32/159 194/33/159
f 171/5/160 179/26/160 195/26/160 187/5/160
f 179/26/161 165/25/161 181/25/161 195/26/161
f 172/29/162 180/4/162 196/4/162 188/29/162
f 165/25/163 173/20/163 189/20/163 181/25/163
f 180/4/164 168/3/164 184/3/164 196/4/164
f 173/20/165 169/24/165 185/24/165 189/20/165
f 187/5/166 195/26/166 211/26/166 203/5/166
f 195/26/166 181/25/166 197/25/166 211/26/166
f 188/29/167 196/4/167 212/4/167 204/29/167
f 181/25/168 189/20/168 205/20/168 197/25/168
f 196/4/167 184/3/167 200/3/167 212/4/167
f 189/20/168 185/24/168 201/24/168 205/20/168
f 182/32/169 190/6/169 206/6/169 198/32/169
f 190/6/169 187/5/169 203/5/169 206/6/169
f 184/3/170 191/2/170 207/2/170 200/3/170
f 191/2/170 186/19/170 202/19/170 207/2/170
f 183/16/171 192/15/171 208/15/171 199/16/171
f 192/15/171 188/29/171 204/29/171 208/15/171
f 185/24/172 193/14/172 209/14/172 201/24/172
f 193/14/172 183/16/172 199/16/172 209/14/172
f 186/19/173 194/33/173 210/33/173 202/19/173
f 194/33/173 182/32/173 198/32/173 210/33/173
f 205/20/174 201/24/174 209/14/174 199/16/174 208/15/174 204/29/174 212/4/174 200/3/174 207/2/174 202/19/174 210/33/174 198/32/174 206/6/174 203/5/174 211/26/174 197/25/174
